PathFileType	4	(X/Y/Z)	3_coords_data.trc
DataRate	CameraRate	NumFrames	NumMarkers	Units	OrigDataRate	OrigDataStartFrame	OrigNumFrames
30.0	30.0	8	21	m	30.0	21	81
Frame#	Time	THUMB_TIP	THUMB_IP	THUMB_MCP	THUMB_CMC	INDEX_TIP	INDEX_DIP	INDEX_PIP	INDEX_MCP	MIDDLE_TIP	MIDDLE_DIP	MIDDLE_PIP	MIDDLE_MCP	RING_TIP	RING_DIP	RING_PIP	RING_MCP	PINKY_TIP	PINKY_DIP	PINKY_PIP	PINKY_MCP	WRIST
X1	Y1	Z1	X2	Y2	Z2	X3	Y3	Z3	X4	Y4	Z4	X5	Y5	Z5	X6	Y6	Z6	X7	Y7	Z7	X8	Y8	Z8	X9	Y9	Z9	X10	Y10	Z10	X11	Y11	Z11	X12	Y12	Z12	X13	Y13	Z13	X14	Y14	Z14	X15	Y15	Z15	X16	Y16	Z16	X17	Y17	Z17	X18	Y18	Z18	X19	Y19	Z19	X20	Y20	Z20	X21	Y21	Z21
20	0.6666666666666666	-0.16700700378417968	-0.11663600158691406	0.9277780151367188	-0.16595700073242187	-0.0939186019897461	0.9463699951171874	-0.16751300048828124	-0.07559860229492188	0.9714979858398437	-0.16741799926757814	-0.04629460144042969	0.9962169799804688	-0.1538520050048828	-0.048602798461914065	0.9737059936523438	-0.1388059997558594	-0.044974700927734375	0.9613099975585937	-0.1365469970703125	-0.0447681999206543	0.9368040161132812	-0.1764739990234375	-0.05277629852294922	0.9397150268554687	-0.1542239990234375	-0.033289199829101564	0.9778889770507813	-0.1413800048828125	-0.026916700363159178	0.9676640014648438	-0.1377480010986328	-0.023519699096679687	0.940718017578125	-0.18056100463867186	-0.030012399673461913	0.9388599853515625	-0.16272799682617187	-0.0197898006439209	0.9817130126953125	-0.14807899475097655	-0.01095110034942627	0.9724569702148438	-0.1449759979248047	-0.003833689928054809	0.9480079956054688	-0.18481700134277343	-0.009921819686889648	0.94631201171875	-0.16707200622558593	-0.006359469890594482	0.9823820190429687	-0.1536809997558594	0.002903749942779541	0.9744359741210937	-0.15490400695800782	0.011232600212097169	0.9575560302734375	-0.1872760009765625	0.007845069885253906	0.9555460205078125	-0.185447998046875	-0.024178300857543945	1.0199199829101562
21	0.7	-0.16686900329589843	-0.11655500030517578	0.9275139770507812	-0.16583299255371095	-0.09382499694824219	0.9461900024414063	-0.16737199401855468	-0.07556790161132812	0.9713629760742187	-0.16695599365234376	-0.0462494010925293	0.9960280151367188	-0.15403999328613283	-0.04882320022583008	0.9736519775390625	-0.1394029998779297	-0.04496049880981445	0.9611829833984376	-0.13645899963378907	-0.044849300384521486	0.9366640014648437	-0.17673699951171876	-0.052823600769042967	0.9397340087890625	-0.15131500244140625	-0.032265899658203125	0.974260986328125	-0.14137800598144531	-0.026967599868774415	0.9675980224609375	-0.13838099670410156	-0.023395999908447266	0.9400709838867187	-0.1799429931640625	-0.029968099594116213	0.938427978515625	-0.16267599487304688	-0.0198174991607666	0.9815750122070312	-0.14802499389648438	-0.011087800025939941	0.9726530151367188	-0.1449510040283203	-0.003808379888534546	0.9479010009765625	-0.18470199584960936	-0.009914540290832519	0.9461099853515625	-0.16723500061035157	-0.00634708023071289	0.9819639892578125	-0.15359800720214845	0.002921540021896362	0.9741680297851563	-0.15543400573730468	0.011307200431823731	0.9570369873046874	-0.18665199279785155	0.007907859802246094	0.9550980224609374	-0.18488699340820314	-0.02408639907836914	1.019489990234375
22	0.7333333333333333	-0.16690499877929688	-0.11635500335693359	0.9271920166015625	-0.16585800170898438	-0.09375640106201172	0.9459229736328125	-0.16741400146484375	-0.07556780242919922	0.9710469970703125	-0.1672480010986328	-0.04638999938964844	0.995781982421875	-0.15397500610351564	-0.048762901306152344	0.972906982421875	-0.1389530029296875	-0.04518790054321289	0.9611339721679687	-0.1365	-0.04481650161743164	0.9364739990234375	-0.17595799255371095	-0.05265539932250977	0.9392160034179687	-0.1536959991455078	-0.03297850036621094	0.9766680297851562	-0.14119200134277343	-0.027149700164794923	0.9675650024414062	-0.1376840057373047	-0.023404199600219725	0.94043798828125	-0.18011900329589844	-0.029883100509643556	0.938405029296875	-0.16242799377441405	-0.019805599212646484	0.9813909912109375	-0.14797300720214843	-0.01094029998779297	0.972219970703125	-0.14489799499511719	-0.003813290119171142	0.9477030029296875	-0.1845279998779297	-0.009859910011291504	0.9459829711914063	-0.16341200256347657	-0.00605978012084961	0.9833280029296875	-0.15366200256347656	0.002897239923477173	0.9741740112304688	-0.15522000122070312	0.011263299942016601	0.9568480224609375	-0.18614100646972656	0.007956809997558593	0.9550499877929688	-0.1850070037841797	-0.024096900939941407	1.0193599853515625
23	0.7666666666666667	-0.16689700317382813	-0.11632599639892578	0.9270009765625	-0.16586799621582032	-0.09384970092773437	0.9457119750976563	-0.16737300109863282	-0.07574420166015625	0.9709119873046875	-0.1671750030517578	-0.04634140014648438	0.995718994140625	-0.15541200256347656	-0.04863779830932617	0.9735440063476563	-0.13882699584960936	-0.04507369995117187	0.9609199829101562	-0.13641499328613282	-0.044567298889160153	0.9362860107421875	-0.1763470001220703	-0.052758499145507814	0.9392429809570313	-0.15570199584960936	-0.03291500091552734	0.977427001953125	-0.141218994140625	-0.027010799407958985	0.9673150024414062	-0.13776499938964842	-0.02335099983215332	0.9402139892578125	-0.18008900451660156	-0.029830400466918944	0.938301025390625	-0.16219200134277345	-0.019961999893188476	0.9814669799804687	-0.1479219970703125	-0.010930299758911133	0.9720170288085938	-0.14370799255371094	-0.0039030299186706544	0.947905029296875	-0.18453599548339844	-0.009811019897460938	0.9458829956054687	-0.16700300598144532	-0.006453829765319824	0.981531005859375	-0.15346099853515624	0.002881020069122314	0.9740900268554687	-0.15497300720214843	0.011227999687194824	0.9567440185546875	-0.18708700561523436	0.00789498996734619	0.9550869750976563	-0.18534800720214845	-0.02416629981994629	1.0191799926757812
24	0.8	-0.16693400573730469	-0.1162040023803711	0.9268599853515626	-0.16588499450683594	-0.09355229949951172	0.945594970703125	-0.16741099548339844	-0.07568389892578126	0.9707119750976563	-0.16676699829101563	-0.046223201751708985	0.9955869750976563	-0.153802001953125	-0.048905399322509764	0.9723410034179687	-0.13874000549316406	-0.04495959854125976	0.9603359985351563	-0.1364029998779297	-0.04468140029907226	0.936197021484375	-0.17637699890136718	-0.05267190170288086	0.9391400146484375	-0.15203399658203126	-0.03282260131835937	0.9753259887695312	-0.14111900329589844	-0.02722920036315918	0.967531005859375	-0.13793899536132812	-0.02335409927368164	0.9397839965820313	-0.18065699768066407	-0.029741600036621095	0.938427001953125	-0.16178700256347656	-0.01974519920349121	0.9812050170898438	-0.14774400329589843	-0.010965200424194336	0.9718900146484375	-0.144697998046875	-0.0037521500587463378	0.9474210205078125	-0.1845050048828125	-0.009716480255126954	0.9457570190429687	-0.16676300048828124	-0.006300710201263428	0.9815850219726563	-0.15336700439453124	0.0029150600433349608	0.9737639770507812	-0.15520100402832032	0.011345600128173828	0.9568189697265626	-0.18700799560546874	0.008016130447387696	0.9549130249023438	-0.18486500549316406	-0.024197099685668945	1.0191699829101561
25	0.8333333333333334	-0.16715699768066405	-0.1160459976196289	0.926530029296875	-0.16595399475097655	-0.09326149749755859	0.9454669799804688	-0.16710499572753906	-0.07552999877929688	0.9704769897460938	-0.1668699951171875	-0.04605590057373047	0.9954119873046875	-0.15476499938964844	-0.04863970184326172	0.9723189697265625	-0.13866400146484376	-0.04480780029296875	0.9607100219726562	-0.13655799865722656	-0.0444093017578125	0.935989013671875	-0.17673599243164062	-0.05251459884643555	0.9392160034179687	-0.15208099365234376	-0.03264099884033203	0.9750969848632812	-0.14105799865722657	-0.02675589942932129	0.967051025390625	-0.13768099975585937	-0.02321619987487793	0.9400850219726562	-0.18005999755859375	-0.029574499130249024	0.9380289916992187	-0.16213900756835936	-0.01971809959411621	0.981218017578125	-0.14781199645996093	-0.010743200302124023	0.9719420166015625	-0.14372900390625	-0.003597929954528808	0.9474400024414062	-0.18444200134277344	-0.009539719581604003	0.9456119995117187	-0.16698100280761718	-0.0063047800064086916	0.9813930053710938	-0.1532760009765625	0.003208719968795776	0.973677001953125	-0.15528700256347655	0.01155840015411377	0.9567020263671875	-0.18663600158691407	0.00815565013885498	0.9548319702148438	-0.18460699462890626	-0.023937200546264647	1.0190999755859376
26	0.8666666666666667	-0.1671889953613281	-0.11581400299072266	0.9263980102539062	-0.16593299865722655	-0.0930645980834961	0.9452969970703125	-0.16737199401855468	-0.07512809753417969	0.9704359741210937	-0.16672000122070313	-0.04602930068969727	0.9951400146484375	-0.15304200744628907	-0.048185901641845705	0.9726920166015625	-0.13896699523925782	-0.044380699157714844	0.9602000122070312	-0.13654299926757812	-0.04422980117797851	0.9359739990234375	-0.17640400695800781	-0.052229000091552735	0.9387969970703125	-0.15477099609375	-0.0328202018737793	0.9776339721679688	-0.14104100036621095	-0.02690660095214844	0.9672969970703125	-0.13795700073242187	-0.023017200469970703	0.9397490234375	-0.18000100708007813	-0.029333700180053712	0.9378380126953125	-0.16196000671386718	-0.019299100875854493	0.9809669799804688	-0.14774200439453125	-0.010531200408935546	0.9718109741210937	-0.14471800231933593	-0.003348619937896728	0.9472949829101562	-0.18441400146484374	-0.009305899620056152	0.9454600219726562	-0.16710000610351564	-0.006071680068969727	0.9812689819335938	-0.15341600036621095	0.0032480499744415277	0.9734569702148438	-0.15495899963378906	0.01172350025177002	0.9565809936523437	-0.18606300354003907	0.008455010414123535	0.954510009765625	-0.18485000610351562	-0.023686500549316408	1.01877001953125
27	0.9	-0.167197998046875	-0.11553399658203126	0.9262509765625	-0.1661199951171875	-0.09276509857177734	0.9451790161132813	-0.1675189971923828	-0.07504199981689454	0.9703419799804688	-0.16735899353027345	-0.045817699432373044	0.99527099609375	-0.15333299255371094	-0.04803210067749023	0.9724039916992188	-0.1387949981689453	-0.04420709991455078	0.9603469848632813	-0.13643600463867187	-0.044139301300048825	0.9357979736328125	-0.1763699951171875	-0.05204079818725586	0.938677001953125	-0.15246099853515624	-0.03232070159912109	0.97560498046875	-0.14107000732421876	-0.026270000457763672	0.9665960083007813	-0.13794700622558595	-0.0228218994140625	0.9396790161132812	-0.18033200073242187	-0.029218099594116212	0.9379190063476562	-0.16228799438476563	-0.019111900329589843	0.9809219970703125	-0.14789300537109376	-0.010352199554443359	0.9715269775390625	-0.14488800048828124	-0.003105920076370239	0.9471929931640625	-0.1843609924316406	-0.009104249954223632	0.9453369750976562	-0.1670229949951172	-0.005847400188446045	0.9811270141601562	-0.15348599243164063	0.003511770009994507	0.9733660278320313	-0.15500100708007813	0.011936400413513184	0.956468994140625	-0.18691299438476563	0.008596190452575684	0.9545549926757813	-0.18471600341796876	-0.02340839958190918	1.0186500244140626
